# xmcd
#
# Track frame offsets: 
#        150
#        14604
#        28155
#        43896
#        55824
#        68419
#        83222
#        97314
#        110316
#        123085
#
# Disc length: 1760 seconds
#
# Revision: 0
# Processed by: cddbd v1.5.2PL0 Copyright (c) Steve Scherf et al.
# Submitted via: ExactAudioCopy v1.0b4
#
DISCID=8206de0a
DTITLE=Washington Phillips - Washington Phillips
DYEAR=2015
DGENRE=Blues
TTITLE0=Take Your Burden To The Lord
TTITLE1=I Had A Good Mother And Farther
TTITLE2=Lift Him Up That's All
TTITLE3=Paul And Silas In Jail
TTITLE4=You Cant Stop A Tattler
TTITLE5=What Are They Doing In Heaven Today
TTITLE6=I Was Born To Preach The Gospel
TTITLE7=Mothers Last Word To Her Daughter
TTITLE8=Mothers Last Word To Her Son
TTITLE9=Train Your Child
EXTD=
EXTT0=
EXTT1=
EXTT2=
EXTT3=
EXTT4=
EXTT5=
EXTT6=
EXTT7=
EXTT8=
EXTT9=
PLAYORDER=
